<?xml version="1.0" encoding="UTF-8"?>
<svg width="84px" height="84px" viewBox="0 0 84 84" version="1.1" xmlns="http://www.w3.org/2000/svg" xmlns:xlink="http://www.w3.org/1999/xlink">
    <!-- Generator: Sketch 52.2 (67145) - http://www.bohemiancoding.com/sketch -->
    <title>Artboard Copy 15@2x</title>
    <desc>Created with Sketch.</desc>
    <g id="Artboard-Copy-15" stroke="none" stroke-width="1" fill="none" fill-rule="evenodd">
        <rect fill="#FFFFFF" opacity="0" x="0" y="0" width="84" height="84"></rect>
        <g id="Group" transform="translate(2.000000, 2.000000)" fill="#FFFFFF">
            <rect id="Rectangle" x="36.5432099" y="0" width="6.91358025" height="20.2531646" rx="3.45679012"></rect>
            <path d="M58.9224386,7.21082071 L58.9224386,7.21082071 C60.8652955,7.23478949 62.4344277,8.80400556 62.4582927,10.7468637 L62.6187222,23.8075061 C62.641842,25.6896921 61.134771,27.2342476 59.252585,27.2573673 C59.2246174,27.2577108 59.1966466,27.2577101 59.168679,27.257365 L59.168679,27.257365 C57.2258221,27.2333962 55.6566899,25.6641802 55.6328249,23.721322 L55.4723954,10.6606796 C55.4492757,8.77849362 56.9563466,7.23393818 58.8385326,7.21081847 C58.8665002,7.21047493 58.894471,7.21047568 58.9224386,7.21082071 Z" id="Rectangle" transform="translate(59.045559, 17.234093) rotate(40.000000) translate(-59.045559, -17.234093) "></path>
            <path d="M69.1367298,25.3468586 L69.1367298,25.3468586 C71.0976174,25.3551446 72.6852333,26.9426009 72.6937162,28.9034878 L72.7485916,41.5883266 C72.7569814,43.5276773 71.1916282,45.106633 69.2522775,45.1150227 C69.2422677,45.115066 69.2322579,45.1150665 69.2222482,45.1150242 L69.2222482,45.1150242 C67.2613605,45.1067383 65.6737447,43.5192819 65.6652618,41.5583951 L65.6103863,28.8735563 C65.6019966,26.9342056 67.1673497,25.3552499 69.1067005,25.3468601 C69.1167102,25.3468168 69.1267201,25.3468163 69.1367298,25.3468586 Z" id="Rectangle" transform="translate(69.179489, 35.230941) rotate(80.000000) translate(-69.179489, -35.230941) "></path>
            <path d="M65.7682821,45.7571496 L65.7682821,45.7571496 C67.6719946,45.7366693 69.2318611,47.2633306 69.2523413,49.1670432 C69.252609,49.1919198 69.2526073,49.2167986 69.2523363,49.2416752 L69.1125384,62.0749408 C69.0912135,64.0325345 67.5093385,65.6141955 65.5517419,65.6352555 L65.5517419,65.6352555 C63.6480293,65.6557358 62.0881629,64.1290744 62.0676826,62.2253619 C62.067415,62.2004853 62.0674166,62.1756064 62.0676876,62.1507298 L62.2074855,49.3174643 C62.2288104,47.3598705 63.8106854,45.7782095 65.7682821,45.7571496 Z" id="Rectangle" transform="translate(65.660012, 55.696203) rotate(120.000000) translate(-65.660012, -55.696203) "></path>
            <path d="M50.2142912,58.9566198 L50.2142912,58.9566198 C52.0985499,58.9413337 53.6384353,60.4564354 53.6537214,62.3406941 C53.6538697,62.3589708 53.6538711,62.3772483 53.6537256,62.395525 L53.5481893,75.6561284 C53.532879,77.5798641 51.9773025,79.13568 50.0535692,79.1512863 L50.0535692,79.1512863 C48.1693104,79.1665724 46.6294251,77.6514707 46.6141389,75.767212 C46.6139907,75.7489353 46.6139893,75.7306578 46.6141347,75.7123811 L46.7196711,62.4517777 C46.7349814,60.528042 48.2905579,58.9722261 50.2142912,58.9566198 Z" id="Rectangle" transform="translate(50.133930, 69.053953) rotate(160.000000) translate(-50.133930, -69.053953) "></path>
            <path d="M29.7857088,58.9566198 L29.7857088,58.9566198 C31.7094421,58.9722261 33.2650186,60.528042 33.2803289,62.4517777 L33.3858653,75.7123811 C33.4008614,77.5966422 31.8855228,79.1362944 30.0012617,79.1512905 C29.982985,79.151436 29.9647075,79.1514346 29.9464308,79.1512863 L29.9464308,79.1512863 C28.0226975,79.13568 26.467121,77.5798641 26.4518107,75.6561284 L26.3462744,62.395525 C26.3312782,60.5112639 27.8466169,58.9716117 29.730878,58.9566156 C29.7491546,58.9564701 29.7674322,58.9564715 29.7857088,58.9566198 Z" id="Rectangle" transform="translate(29.866070, 69.053953) rotate(200.000000) translate(-29.866070, -69.053953) "></path>
            <path d="M14.2317179,45.7571496 L14.2317179,45.7571496 C16.1893146,45.7782095 17.7711896,47.3598705 17.7925145,49.3174643 L17.9323124,62.1507298 C17.9530502,64.0544396 16.4266,65.6145126 14.5228902,65.6352505 C14.4980136,65.6355215 14.4731348,65.6355231 14.4482581,65.6352555 L14.4482581,65.6352555 C12.4906615,65.6141955 10.9087865,64.0325345 10.8874616,62.0749408 L10.7476637,49.2416752 C10.7269258,47.3379655 12.2533761,45.7778925 14.1570859,45.7571546 C14.1819625,45.7568836 14.2068413,45.7568819 14.2317179,45.7571496 Z" id="Rectangle" transform="translate(14.339988, 55.696203) rotate(240.000000) translate(-14.339988, -55.696203) "></path>
            <path d="M10.8632702,25.3468586 L10.8632702,25.3468586 C12.8026218,25.3386637 14.3814202,26.9041754 14.3896152,28.843527 C14.3896575,28.8535368 14.389657,28.8635466 14.3896137,28.8735563 L14.3347382,41.5583951 C14.3262553,43.5192819 12.7386395,45.1067383 10.7777518,45.1150242 L10.7777518,45.1150242 C8.83840023,45.1232192 7.25960181,43.5577074 7.25140685,41.6183558 C7.25136455,41.6083461 7.25136505,41.5983363 7.25140836,41.5883266 L7.30628381,28.9034878 C7.31476674,26.9426009 8.90238256,25.3551446 10.8632702,25.3468586 Z" id="Rectangle" transform="translate(10.820511, 35.230941) rotate(280.000000) translate(-10.820511, -35.230941) "></path>
            <path d="M21.0775614,7.21082071 L21.0775614,7.21082071 C22.9597461,7.18760043 24.5043821,8.69458888 24.5276024,10.5767736 C24.5279474,10.6047412 24.5279482,10.632712 24.5276046,10.6606796 L24.3671751,23.721322 C24.3433101,25.6641802 22.7741779,27.2333962 20.831321,27.257365 L20.831321,27.257365 C18.9491362,27.2805853 17.4045003,25.7735968 17.38128,23.8914121 C17.380935,23.8634445 17.3809342,23.8354737 17.3812778,23.8075061 L17.5417073,10.7468637 C17.5655723,8.80400556 19.1347045,7.23478949 21.0775614,7.21082071 Z" id="Rectangle" transform="translate(20.954441, 17.234093) rotate(320.000000) translate(-20.954441, -17.234093) "></path>
        </g>
    </g>
</svg>